<svg width="128" height="28" fill="none" xmlns="http://www.w3.org/2000/svg"><path d="M110.4 18.197c-.159.313-.917 1.407-2.658 1.407-2.023 0-3.706-1.92-3.706-4.482 0-2.539 1.683-4.087 3.72-4.087 1.669 0 2.456 1.02 2.63 1.347v-1.176h1.993v8.227H110.4v-1.236zm-2.283-5.427c-1.43 0-2.362 1.02-2.362 2.352 0 1.333.932 2.748 2.362 2.748 1.38 0 2.297-1.415 2.297-2.748 0-1.325-.917-2.352-2.297-2.352zM116.966 8.437h-1.921v1.377h1.921V8.437zM116.966 11.184h-1.921v8.25h1.921v-8.25z" fill="#fff"/><path fill-rule="evenodd" clip-rule="evenodd" d="M71.725 11.184l-1.907 1.973v6.276h1.907v-6.329h4.016v-1.92h-4.016zM79.36 11.184l-1.907 1.973v6.276h1.907v-6.329h2.81v6.33h1.915v-6.33h2.81v6.33H88.8v-8.25h-9.44zM57.892 13.105v-1.921h-3.265V8.437h-1.915v9.03l1.915 1.966h3.286v-1.92h-3.286v-4.408h3.265zM125.107 11.184h-5.475v8.25h1.914v-6.33h3.561v6.33h1.907v-6.277l-1.907-1.973zM47.042 12.837c-.722-.075-1.22-.142-1.878-.201-1.127-.142-1.741-.574-1.741-1.318 0-.804.766-1.318 2.225-1.318 1.647 0 2.427.655 2.788 1.184h2.095c-.354-1.385-1.618-2.949-4.883-2.949-2.543 0-4.27 1.177-4.27 3.142 0 1.966 1.518 3.038 3.634 3.24l1.893.2c1.098.142 1.849.477 1.849 1.534 0 .886-.86 1.519-2.478 1.519-1.56 0-2.412-.588-2.846-1.184h-2.254c.542 1.444 1.95 2.948 5.1 2.948 3.02 0 4.537-1.437 4.537-3.425 0-2.285-1.654-3.171-3.771-3.372z" fill="#fff"/><path d="M67.882 15.286c0 2.517-1.77 4.348-4.089 4.348-2.34 0-4.102-1.831-4.102-4.348 0-2.516 1.755-4.348 4.102-4.348 2.32.007 4.09 1.832 4.09 4.348zm-1.936 0c0-1.407-.874-2.487-2.145-2.487-1.272 0-2.167 1.11-2.167 2.487 0 1.37.888 2.487 2.167 2.487 1.278 0 2.145-1.08 2.145-2.487z" fill="#fff"/><path fill-rule="evenodd" clip-rule="evenodd" d="M96.336 14.87h3.756v2.248c-.433.313-1.365.685-2.752.685-2.34 0-3.8-1.593-3.8-3.887 0-2.166 1.322-3.827 3.424-3.827 1.488 0 2.268.693 2.615 1.11h2.167c-.39-1.176-1.705-2.949-4.782-2.949-3.2 0-5.483 2.383-5.483 5.666 0 3.396 2.297 5.733 5.844 5.733 2.45 0 3.981-.96 4.703-1.623V13.12h-5.692v1.75z" fill="#fff"/><path fill-rule="evenodd" clip-rule="evenodd" d="M13.31.824L-.275 14h13.583L26.902.824H13.31zM13.31 14L-.275 28h13.583l13.593-14H13.31z" fill="#13DA5A"/></svg>