<?xml version="1.0" encoding="UTF-8"?>
<svg width="602px" height="54px" viewBox="0 0 602 54" version="1.1" xmlns="http://www.w3.org/2000/svg" xmlns:xlink="http://www.w3.org/1999/xlink">
    <!-- Generator: Sketch 61.2 (89653) - https://sketch.com -->
    <title>Coinbase_Wordmark_SubBrands_Ventures_BB</title>
    <desc>Created with Sketch.</desc>
    <g id="Page-1" stroke="none" stroke-width="1" fill="none" fill-rule="evenodd">
        <g id="Coinbase_Wordmark_SubBrands_Ventures_BB" fill="#000000" fill-rule="nonzero">
            <path d="M164.45,15 C159.922188,14.9356637 155.607635,16.9202107 152.71,20.4 L152.71,0 L144.07,0 L144.07,52.92 L152.57,52.92 L152.57,48 C155.454912,51.6007367 159.836415,53.6734679 164.45,53.62 C174.82,53.62 182.66,45.41 182.66,34.32 C182.66,23.23 174.67,15 164.45,15 Z M163.15,45.67 C156.96,45.67 152.42,40.84 152.42,34.36 C152.42,27.88 157,23 163.22,23 C169.44,23 173.88,27.82 173.88,34.37 C173.88,40.92 169.34,45.65 163.15,45.65 L163.15,45.67 Z M19.3,23 C23.6696871,22.9650713 27.5389294,25.816092 28.8,30 L37.94,30 C36.29,21.07 28.94,15 19.37,15 C14.2075688,14.8986044 9.22620163,16.9026359 5.57227897,20.5508994 C1.91835632,24.1991629 -0.0933938288,29.1774178 1.33222426e-14,34.34 C1.33222426e-14,45.43 8.28,53.64 19.37,53.64 C28.73,53.64 36.22,47.64 37.87,38.64 L28.8,38.64 C27.5942752,42.8408675 23.7403976,45.7261672 19.37,45.7 C13.1,45.7 8.71,40.87 8.71,34.39 C8.71,27.91 13,23 19.3,23 Z M60.41,15 C55.2407036,14.8875757 50.248847,16.8867332 46.5861395,20.5362315 C42.923432,24.1857299 40.9062525,29.1703312 41,34.34 C41,45.43 49.28,53.64 60.37,53.64 C65.5685714,53.7915786 70.6020366,51.8055515 74.2965124,48.1450913 C77.9909883,44.4846311 80.0234877,39.4697511 79.92,34.27 C79.92,23.33 71.64,15 60.41,15 Z M60.48,45.67 C54.29,45.67 49.75,40.84 49.75,34.36 C49.75,27.88 54.22,23 60.41,23 C66.6,23 71.21,27.89 71.21,34.37 C71.21,40.85 66.67,45.65 60.48,45.65 L60.48,45.67 Z M123.41,15 C117.79,15 114.12,17.3 111.96,20.54 L111.96,15.7 L103.39,15.7 L103.39,52.92 L112,52.92 L112,32.69 C112,27 115.63,23 121,23 C126,23 129.06,26.53 129.06,31.64 L129.06,52.92 L137.7,52.92 L137.7,31 C137.66,21.6 132.84,15 123.41,15 Z M218.81,28.46 C218.81,20.4 213.91,15 203.54,15 C193.75,15 188.28,20 187.2,27.6 L195.77,27.6 C196.2,24.6 198.5,22.2 203.4,22.2 C207.79,22.2 209.95,24.14 209.95,26.52 C209.95,29.61 205.95,30.4 201.1,30.91 C194.47,31.63 186.26,33.91 186.26,42.57 C186.26,49.27 191.26,53.57 199.15,53.57 C205.34,53.57 209.23,50.98 211.15,46.87 C211.43,50.54 214.15,52.92 217.99,52.92 L222.99,52.92 L222.99,45.22 L218.74,45.22 L218.81,28.46 Z M210.31,37.82 C210.31,42.82 205.99,46.46 200.74,46.46 C197.5,46.46 194.74,45.09 194.74,42.21 C194.74,38.54 199.13,37.53 203.16,37.1 C207.19,36.67 209.16,35.88 210.29,34.22 L210.31,37.82 Z M92,0.36 C90.5265166,0.307404967 89.0964356,0.864104926 88.0463211,1.89908267 C86.9962066,2.93406041 86.418803,4.35590835 86.45,5.83 C86.5761926,8.8008924 89.0214287,11.1444687 91.995,11.1444687 C94.9685713,11.1444687 97.4138074,8.8008924 97.54,5.83 C97.5739951,4.35684287 96.9988775,2.93488925 95.9503173,1.89957807 C94.9017572,0.864266892 93.4726058,0.307276152 92,0.36 Z M82.28,23.36 L87.68,23.36 L87.68,52.92 L96.32,52.92 L96.32,15.7 L82.32,15.7 L82.28,23.36 Z M281.09,15 C270,15 261.86,23.35 261.86,34.36 C261.86,45.96 270.58,53.66 281.23,53.66 C290.23,53.66 297.29,48.33 299.09,40.77 L290.09,40.77 C288.79,44.08 285.62,45.96 281.38,45.96 C275.83,45.96 271.66,42.5 270.72,36.45 L299.3,36.45 L299.3,33.12 C299.3,22.46 291.53,15 281.09,15 Z M271.22,30.26 C272.59,25.08 276.48,22.56 280.94,22.56 C285.84,22.56 289.58,25.36 290.45,30.26 L271.22,30.26 Z M246.46,30.76 L240.12,29.83 C237.12,29.4 234.94,28.39 234.94,26.01 C234.94,23.42 237.74,22.12 241.56,22.12 C245.74,22.12 248.4,23.92 248.98,26.88 L257.33,26.88 C256.39,19.39 250.63,15 241.78,15 C232.63,15 226.58,19.68 226.58,26.3 C226.58,32.64 230.58,36.3 238.58,37.46 L244.91,38.4 C248.01,38.83 249.74,40.05 249.74,42.4 C249.74,45.35 246.74,46.57 242.54,46.57 C237.42,46.57 234.54,44.48 234.11,41.32 L225.62,41.32 C226.41,48.59 232.1,53.7 242.46,53.7 C251.9,53.7 258.16,49.38 258.16,41.96 C258.12,35.28 253.58,31.82 246.46,30.74 L246.46,30.76 Z" id="Shape"></path>
            <path d="M520.12,37.43 C528,37.43 532.33,33.25 532.33,26.69 C532.33,20.13 527.89,15.69 519.85,15.69 L503.73,15.69 L503.73,52.92 L509.33,52.92 L509.33,37.43 L526.15,52.92 L534.15,52.92 L516.89,37.43 L520.12,37.43 Z M509.33,20.43 L519.69,20.43 C524.29,20.43 526.69,22.71 526.69,26.43 L526.69,27.07 C526.69,30.77 524.31,33.07 519.69,33.07 L509.33,33.07 L509.33,20.43 Z M488.07,39.73 C488.07,45.34 484.85,48.83 479.14,48.83 C473.43,48.83 470.14,45.34 470.14,39.73 L470.14,15.73 L464.53,15.73 L464.53,39.91 C464.53,47.91 469.82,53.71 479.13,53.71 C488.44,53.71 493.67,47.9 493.67,39.91 L493.67,15.7 L488.06,15.7 L488.07,39.73 Z M540.58,52.9 L566.12,52.9 L566.12,48.05 L546.18,48.05 L546.18,36.11 L564.53,36.11 L564.53,31.35 L546.18,31.35 L546.18,20.56 L566.12,20.56 L566.12,15.7 L540.58,15.7 L540.58,52.9 Z M590.33,31.9 L585.21,31.1 C581.08,30.41 578.44,28.99 578.44,25.44 C578.44,22.11 581.19,19.44 586.79,19.44 C592.39,19.44 595,22 595.25,25.58 L600.91,25.58 C600.7,19.87 596.04,14.85 586.84,14.85 C577.84,14.85 572.78,19.77 572.78,25.79 C572.78,32.35 577.33,35.31 583.67,36.26 L588.85,37.06 C593.35,37.8 595.78,39.17 595.78,42.71 C595.78,46.52 592.45,49.17 586.9,49.17 C581.35,49.17 577.75,46.68 577.54,42.17 L571.88,42.17 C572.04,48.88 577.64,53.69 586.88,53.69 C595.66,53.69 601.53,49.15 601.53,42.32 C601.49,35.68 596.84,32.88 590.33,31.88 L590.33,31.9 Z M428.59,20.56 L440.91,20.56 L440.91,52.92 L446.52,52.92 L446.52,20.56 L458.83,20.56 L458.83,15.7 L428.59,15.7 L428.59,20.56 Z M335.9,46.36 L335.79,46.36 L325,15.7 L319,15.7 L332.83,53 L339,53 L352.5,15.7 L346.79,15.7 L335.9,46.36 Z M417,44.88 L417,44.88 L398.82,15.7 L392.11,15.7 L392.11,52.92 L397.55,52.92 L397.55,23 L397.6,23 L416,52.92 L422.4,52.92 L422.4,15.7 L417,15.7 L417,44.88 Z M358.25,52.88 L383.79,52.88 L383.79,48.05 L363.82,48.05 L363.82,36.11 L382.17,36.11 L382.17,31.35 L363.82,31.35 L363.82,20.56 L383.75,20.56 L383.75,15.7 L358.21,15.7 L358.25,52.88 Z" id="Shape"></path>
        </g>
    </g>
</svg>